<?xml version="1.0" standalone="no"?><!DOCTYPE svg PUBLIC "-//W3C//DTD SVG 1.1//EN" "http://www.w3.org/Graphics/SVG/1.1/DTD/svg11.dtd"><svg width="100%" height="100%" viewBox="0 0 1500 500" version="1.1" xmlns="http://www.w3.org/2000/svg" xmlns:xlink="http://www.w3.org/1999/xlink" xml:space="preserve" style="fill-rule:evenodd;clip-rule:evenodd;stroke-linejoin:round;stroke-miterlimit:1.41421;"><path id="Text with eyes" d="M450.094,416.291c32.387,0 46.951,-19.74 46.951,-43.151l0,-58.36l14.706,0l0,-17.61l-44.117,0l0,17.61l14.706,0l0,51.722c0,12.405 -2.186,20.439 -7.263,25.506c-4.552,4.543 -10.496,6.813 -18.724,6.813c-17.332,0 -26.953,-7.337 -26.953,-28.828l0,-55.213l17.647,0l0,-17.61l-61.763,0l0,17.61l14.705,0l0,59.232c0,26.208 16.317,42.279 50.105,42.279ZM661.747,241.405l-23.529,0l0,-35.479l21.629,-21.208l40.063,56.687l-20.517,0l0,23.48l91.174,0l0,-23.48l-19.432,0l-60.712,-83.772l47.161,-45.367l21.219,0l0,-23.48l-73.527,0l0,23.48l20.597,0l-67.655,65.532l0,-65.532l23.529,0l0,-23.48l-91.174,0l0,23.48l23.529,0l0,129.139l-23.529,0l0,23.48l91.174,0l0,-23.48ZM658.806,396.959l0,17.61l52.436,0c46.393,0 67.752,-25.504 67.752,-59.4c0,-34.065 -22.059,-57.999 -68.802,-57.999l-51.386,0l0,17.61l14.705,0l0,82.179l-14.705,0ZM702.922,314.78l8.67,0c26.085,0 36.24,11.635 36.24,42.034c0,32.144 -9.629,43.08 -35.015,43.08l-9.895,0l0,-85.114ZM520.574,314.78l14.706,0l0,82.179l-14.706,0l0,17.61l47.058,0l0,-17.61l-17.647,0l0,-70.439l2.78,0l54.095,88.049l28.417,0l0,-99.789l14.705,0l0,-17.61l-47.057,0l0,17.61l17.646,0l0,64.57l-2.156,0l-48.844,-82.18l-48.997,0l0,17.61ZM469.444,270.296c51.767,0 91.608,-37.593 91.608,-93.581c0,-56.527 -38.485,-93.042 -91.608,-93.042c-51.766,0 -91.608,37.866 -91.608,93.583c0,56.528 38.485,93.04 91.608,93.04ZM468.63,105.853c28.73,0 44.179,22.178 44.179,71.133c0,49.225 -13.822,71.132 -42.551,71.132c-21.983,0 -36.158,-12.881 -41.619,-40.957c1.963,0.426 3.996,0.666 6.087,0.666c15.732,0 28.485,-12.727 28.485,-28.426c0,-15.699 -12.753,-28.426 -28.485,-28.426c-2.466,0 -4.846,0.346 -7.127,0.934c4.294,-31.508 17.774,-46.056 41.031,-46.056ZM323.625,295.746c-33.438,0 -59.172,24.459 -59.172,60.449c0,36.51 24.858,60.096 59.172,60.096c33.437,0 59.172,-24.283 59.172,-60.445c0,-36.516 -24.858,-60.1 -59.172,-60.1ZM324.15,401.966c-18.557,0 -28.536,-14.151 -28.536,-45.948c0,-31.62 8.928,-45.946 27.485,-45.946c18.557,0 28.536,14.326 28.536,45.946c0,31.797 -8.928,45.948 -27.485,45.948ZM270.229,270.296c51.767,0 91.608,-37.593 91.608,-93.581c0,-56.527 -38.485,-93.042 -91.608,-93.042c-51.767,0 -91.608,37.866 -91.608,93.583c0,56.528 38.485,93.04 91.608,93.04ZM269.415,105.853c28.729,0 44.179,22.178 44.179,71.133c0,49.225 -13.822,71.132 -42.551,71.132c-22.028,0 -36.215,-12.938 -41.65,-41.135c2.176,0.531 4.438,0.844 6.779,0.844c15.731,0 28.484,-12.727 28.484,-28.426c0,-15.699 -12.753,-28.426 -28.484,-28.426c-2.715,0 -5.331,0.403 -7.818,1.111c4.267,-31.636 17.758,-46.233 41.061,-46.233ZM195.12,364.675c12.955,0 15.932,4.582 16.105,17.334l0.176,5.612c0,19.217 8.053,28.488 26.085,28.488c15.756,0 22.759,-10.567 26.085,-24.368l-10.329,-3.36c-2.451,7.862 -4.552,10.286 -7.002,10.286c-3.501,0 -5.078,-1.756 -5.427,-9.271l0.091,-6.815c-0.526,-13.629 -8.557,-23.416 -29.145,-25.34l0,-1.223c26.47,-3.142 35.098,-15.183 35.098,-28.987c0,-14.5 -12.347,-29.861 -47.185,-29.861l-64.382,0l0,17.61l17.647,0l0,82.179l-17.647,0l0,17.61l61.763,0l0,-17.61l-17.646,0l0,-32.284l15.713,0ZM179.407,311.845l17.113,0c15.056,0 19.083,6.763 19.083,18.64c0,13.276 -5.953,19.515 -19.607,19.515l-16.589,0l0,-38.155ZM164.701,191.511l-21.92,0c-11.655,46.959 -16.261,52.829 -37.674,52.829l-31.58,0l0,-132.074l29.411,0l0,-23.48l-97.056,0l0,23.48l23.529,0l0,129.139l-23.529,0l0,23.48l158.819,0l0,-73.374ZM44.116,396.959l-13.426,0l7.352,-20.544l39.391,0l7.353,20.544l-14.2,0l0,17.61l58.822,0l0,-17.61l-13.459,0l-36.59,-99.789l-28.711,0l-37.114,99.789l-13.534,0l0,17.61l44.116,0l0,-17.61ZM57.651,320.65l0.701,0l14.53,41.09l-30.112,0l14.881,-41.09Z" style="fill:#039;fill-rule:nonzero;"/><path id="Text with eyes1" d="M1369.42,126.34l45.304,0l0,149.679c0,20.022 -2.138,36.004 -6.646,48.688c-3.363,9.462 -8.044,17.089 -14.139,23.19c-12.794,12.803 -29.542,19.2 -52.664,19.2c-48.709,0 -75.789,-20.678 -75.789,-81.24l0,-159.517l45.305,0l0,-42.667l-167.893,0l0,42.667l42.639,0l0,170.841c0,73.858 46.721,119.146 141.677,119.146c91.018,0 132.815,-55.627 132.815,-121.601l0,-168.386l39.974,0l0,-42.667l-130.583,0l0,42.667ZM1009.6,366.344l-77.232,0l0,-101.335l26.065,0c27.061,0 30.996,5.334 36.9,45.334l38.303,0l0,-130.668l-38.303,0c-6.889,40 -9.351,45.334 -36.9,45.334l-26.065,0l0,-98.669l79.202,0c41.327,0 48.705,10.667 61.007,74.668l43.673,0l0,-117.335l-309.136,0l0,42.667l45.305,0l0,240.004l-45.305,0l0,42.668l311.801,0l0,-128.002l-41.911,0c-11.809,66.667 -17.713,85.334 -67.404,85.334Z" style="fill:#039;fill-rule:nonzero;"/></svg>